<svg xmlns="http://www.w3.org/2000/svg" width="129.24" height="49.44" viewBox="0 0 129.24 49.44"><g id="Layer_2" data-name="Layer 2"><g id="Layer_1-2" data-name="Layer 1"><path d="M1.39,45.31A12.34,12.34,0,0,1,0,39.75,18.46,18.46,0,0,1,4.66,27a29.4,29.4,0,0,1,11.13-7.39c8.31-3.41,18.15-4.51,24.77-5a126.45,126.45,0,0,0,16.18-2.16,31.94,31.94,0,0,1,2.11-5.85c1.78-3.51,4-5.62,6.63-6.39a5.88,5.88,0,0,1,4,.38A3.7,3.7,0,0,1,71,3.07a6,6,0,0,1-.29,2.83c-1,2.84-3.79,5-8.35,6.63,0,0-1.63.57-2.45.77a37,37,0,0,0-.19,4.8c.05,16.46-6.82,32.16-24.63,31.25a20.34,20.34,0,0,1-7.29-2,17.29,17.29,0,0,1-4.13-3,15,15,0,0,1-4.18-10.85A14.47,14.47,0,0,1,20.36,29a15.35,15.35,0,0,1,2.16-4.13,13.91,13.91,0,0,1,8.2-5.13,16.91,16.91,0,0,1,4.9-.34,15.08,15.08,0,0,1,4.66,1.2,10.86,10.86,0,0,1,5.37,5.48,12.25,12.25,0,0,1,1.06,5.23,19.77,19.77,0,0,1-.19,2.93A7.48,7.48,0,0,1,45,37.87a1.68,1.68,0,0,1-1.25.58,2.41,2.41,0,0,1-2-1,.87.87,0,0,1,.15-1.29A10.07,10.07,0,0,0,44,29.81a8.75,8.75,0,0,0-5.42-8.11,13.6,13.6,0,0,0-7.49-.39,13.4,13.4,0,0,0-7,4.23,12.4,12.4,0,0,0-2.16,4,12.83,12.83,0,0,0-.77,4,13.31,13.31,0,0,0,.82,5,12.55,12.55,0,0,0,2.88,4.65,16.31,16.31,0,0,0,3.7,2.74,15.56,15.56,0,0,0,9.4,1.63,12.22,12.22,0,0,0,5.52-2.35,23.1,23.1,0,0,0,7-8.93,69.42,69.42,0,0,0,5.33-18.86c0-.2.19-1.44.53-3.22a124,124,0,0,1-15.6,2.06c-13.68,1.11-20.4,3.32-24.29,4.9a35.07,35.07,0,0,0-6.15,3.22,17.23,17.23,0,0,0-7.34,13C2.45,44.4,8.59,46,9.6,45.65a1.06,1.06,0,0,1,1.11.1A2.1,2.1,0,0,1,11.28,48a2,2,0,0,1-1,1c-2.64,1.2-6.05-.43-7-1.3A10.08,10.08,0,0,1,1.39,45.31Zm68-41.95A1.84,1.84,0,0,0,68.6,2a2.64,2.64,0,0,0-1.06-.34,4,4,0,0,0-2.11.53C64,3,61.25,4.94,60.15,11.52A23.57,23.57,0,0,0,66,9a7.85,7.85,0,0,0,3.22-3.64A5,5,0,0,0,69.37,3.36Z" fill="#fff"/><path d="M84.15,25.83c-1.73,2.88-8,12.91-11.86,12.38,0,0-3.07-.1-2.21-4.75-.19.24-.43.48-.62.72-1.87,2.16-3.56,3.41-5,3.79a5.76,5.76,0,0,1-1,.1s-3.6.24-2.26-6.29c1.2-6.05,7.92-12.58,12.39-12.1a3.84,3.84,0,0,1,1,.24,2.55,2.55,0,0,1,1,.91c.1.24.19.48.29.77a12.35,12.35,0,0,1,1-1.34,1.93,1.93,0,0,1,1.54-.77h1.39a.82.82,0,0,1,.67,1.25c-2.54,3.84-9.74,15.12-7.92,16.17,0,0,3.17.48,10.42-11.47a.85.85,0,0,1,.76-.43A.54.54,0,0,1,84.15,25.83Zm-13,4a45.2,45.2,0,0,1,3.31-6.19,3.17,3.17,0,0,0,0-2.21.68.68,0,0,0-.29-.34c-.19-.1-1.83-.58-7.49,7.49,0,0-4.71,6.91-2.79,8a1,1,0,0,0,.53,0,11,11,0,0,0,4-3.26A34.23,34.23,0,0,0,71.19,29.86Z" fill="#fff"/><path d="M82.22,36.91s3.94,1.54,11.72-11.47a.83.83,0,0,1,.72-.43.55.55,0,0,1,.48.82c-1.88,3.31-8,12.86-13.16,12.38,0,0-3.69,0-1.34-7.3C84.24,19.63,95.28,5.09,95.28,5.09a2.12,2.12,0,0,1,1.59-.77h1.39a.8.8,0,0,1,.62,1.25S88.94,19.92,83.76,31.06C82.37,34.08,81.41,36.43,82.22,36.91Z" fill="#fff"/><path d="M110.79,25.83c-.44.72-1.16,1.87-2.07,3.21,0,0-2.06,3.22-5.23,3.94-1.54,3-4.18,5.47-7.25,5.28a5.14,5.14,0,0,1-4.66-3.51A9.81,9.81,0,0,1,91.82,29a8.93,8.93,0,0,1,2.26-3.55,6.25,6.25,0,0,1,7.44-6c5.38,1,3.07,10.37,3.07,10.37a10,10,0,0,1-.48,1.63,8.29,8.29,0,0,0,3.46-2.88c.62-1,1.3-2,2-3.17a.85.85,0,0,1,.76-.43A.54.54,0,0,1,110.79,25.83Zm-9.37,7.34a7.74,7.74,0,0,1-2.25-.34,6.8,6.8,0,0,1-3.79-2.78c-2.5,6.67,1.48,6.86,1.48,6.86.82.2,2.26-.72,3.46-2.2A9.79,9.79,0,0,0,101.42,33.17ZM97.06,23.9a5.45,5.45,0,0,1,2,0,.69.69,0,0,1,.29,1.29,10.22,10.22,0,0,0-2.64,2.69,4.67,4.67,0,0,0,3.07,3.7,8.15,8.15,0,0,0,2.31.33c.24-.62.48-1.24.67-1.87,2.45-9.22-1.63-9.31-1.63-9.31C98.74,20.5,97.58,22.37,97.06,23.9Z" fill="#fff"/><path d="M129.17,25.83c-1.73,2.88-8,12.91-11.86,12.38,0,0-4.46-.14-1.73-7.3.53-1.44,2.45-5.23,2.45-5.23,2.55-4.51,2-4.66,2-4.66-.67-.62-2.88,1.16-5.86,5.77a54.76,54.76,0,0,0-5,10.7.56.56,0,0,1-.81.34c-3.41-2.16.19-10.28.19-10.28a55.61,55.61,0,0,1,3.74-7,2.23,2.23,0,0,1,1.92-1.05l1.3,0a.75.75,0,0,1,.62,1.15c-1.68,2.64-3.26,5.28-4.32,7.35a28.54,28.54,0,0,0-2.16,5.42c1.44-3.79,4.61-9.31,7.49-12.14,1.3-1.25,2.59-2,4.13-1.68,4.66,1-.48,8.78-.48,8.78-2.3,4-4.22,8-3.17,8.59,0,0,3.17.48,10.42-11.47a.78.78,0,0,1,.72-.43A.55.55,0,0,1,129.17,25.83Z" fill="#fff"/></g></g></svg>